
<svg width="231" height="95" viewBox="0 0 231 95" fill="none" xmlns="http://www.w3.org/2000/svg">
<g clip-path="url(#clip0_34_59)">
<g filter="url(#filter0_d_34_59)">
<mask id="mask0_34_59" style="mask-type:luminance" maskUnits="userSpaceOnUse" x="2" y="51" width="54" height="18">
<path d="M19.2352 68.8737C18.4882 68.8737 17.7367 68.8197 16.9852 68.7117L2.4502 66.5877L3.2692 60.9947L17.8042 63.1187C21.6787 63.6857 25.5352 61.9127 27.6322 58.6047C31.3357 52.7637 38.3018 50.0817 44.9618 51.9267L45.0018 51.9407L55.1228 54.9057L53.5338 60.3327L43.4358 57.3717C39.1928 56.2067 34.7647 57.9167 32.4112 61.6337C31.0006 63.8507 29.0538 65.6757 26.7508 66.9417C24.4478 68.2067 21.863 68.8717 19.2352 68.8737Z" fill="white"/>
</mask>
<g mask="url(#mask0_34_59)">
<path d="M35.7905 44.2676H119.972V128.449H35.7905V44.2676Z" fill="#FAFAFA"/>
</g>
<mask id="mask1_34_59" style="mask-type:luminance" maskUnits="userSpaceOnUse" x="2" y="51" width="54" height="18">
<path d="M19.2352 68.8737C18.4882 68.8737 17.7367 68.8197 16.9852 68.7117L2.4502 66.5877L3.2692 60.9947L17.8042 63.1187C21.6787 63.6857 25.5352 61.9127 27.6322 58.6047C31.3357 52.7637 38.3018 50.0817 44.9618 51.9267L45.0018 51.9407L55.1228 54.9057L53.5338 60.3327L43.4358 57.3717C39.1928 56.2067 34.7647 57.9167 32.4112 61.6337C31.0006 63.8507 29.0538 65.6757 26.7508 66.9417C24.4478 68.2067 21.863 68.8717 19.2352 68.8737Z" fill="white"/>
</mask>
<g mask="url(#mask1_34_59)">
<path d="M-48.3955 44.2676H35.786V128.449H-48.3955V44.2676Z" fill="#FAFAFA"/>
</g>
<path d="M19.2355 69.3236C18.466 69.3236 17.6875 69.2646 16.9225 69.1526L2.38746 67.0286C2.27046 67.0106 2.16247 66.9476 2.09047 66.8526C2.01847 66.7586 1.98696 66.6366 2.00496 66.5196L2.82396 60.9266C2.85996 60.6786 3.08496 60.5076 3.33246 60.5486L17.8675 62.6726C21.562 63.2126 25.252 61.5206 27.25 58.3656C31.057 52.3586 38.2258 49.5956 45.0838 51.4946C45.0838 51.4946 45.1238 51.5076 45.1288 51.5076L55.2488 54.4736C55.3618 54.5096 55.4608 54.5856 55.5188 54.6896C55.5778 54.7926 55.5908 54.9186 55.5548 55.0316L53.9668 60.4586C53.8948 60.6966 53.6468 60.8316 53.4088 60.7646L43.3108 57.8036C39.2698 56.6916 35.0395 58.3256 32.7895 61.8716C29.8285 66.5376 24.7615 69.3236 19.2355 69.3236ZM2.95897 66.2046L17.0485 68.2656C17.773 68.3696 18.5065 68.4236 19.231 68.4236C24.4465 68.4236 29.23 65.7956 32.02 61.3896C34.4815 57.5066 39.1118 55.7156 43.5448 56.9346L53.2198 59.7696L54.5558 55.2066L44.8678 52.3676C38.3608 50.5626 31.597 53.1686 28.0015 58.8426C26.9259 60.5356 25.3839 61.8816 23.5612 62.7186C21.7385 63.5546 19.7128 63.8466 17.728 63.5586L3.63846 61.4976L2.95897 66.2046Z" fill="black"/>
<mask id="mask2_34_59" style="mask-type:luminance" maskUnits="userSpaceOnUse" x="178" y="50" width="52" height="20">
<path d="M213.127 69.0265C207.574 69.0265 202.372 66.0525 199.587 61.1655C197.404 57.3355 193.048 55.4235 188.751 56.3995L179.229 58.4746L178.027 52.9486L187.527 50.8785C194.241 49.3485 201.076 52.3495 204.505 58.3575C206.445 61.7595 210.216 63.7035 214.113 63.3205L228.733 61.8765L229.291 67.5015L214.671 68.9455C214.149 68.9995 213.636 69.0265 213.127 69.0265Z" fill="white"/>
</mask>
<g mask="url(#mask2_34_59)">
<path d="M204.154 44.2676H288.336V128.45H204.154V44.2676Z" fill="#FAFAFA"/>
</g>
<mask id="mask3_34_59" style="mask-type:luminance" maskUnits="userSpaceOnUse" x="178" y="50" width="52" height="20">
<path d="M213.127 69.0265C207.574 69.0265 202.372 66.0525 199.587 61.1655C197.404 57.3355 193.048 55.4235 188.751 56.3995L179.229 58.4746L178.027 52.9486L187.527 50.8785C194.241 49.3485 201.076 52.3495 204.505 58.3575C206.445 61.7595 210.216 63.7035 214.113 63.3205L228.733 61.8765L229.291 67.5015L214.671 68.9455C214.149 68.9995 213.636 69.0265 213.127 69.0265Z" fill="white"/>
</mask>
<g mask="url(#mask3_34_59)">
<path d="M119.972 44.2676H204.154V128.45H119.972V44.2676Z" fill="#FAFAFA"/>
</g>
<path d="M212.552 69.4466C206.806 69.4466 201.464 66.3456 198.62 61.3556C196.532 57.7016 192.379 55.8746 188.275 56.8056L178.748 58.8806C178.505 58.9346 178.267 58.7766 178.213 58.5386L177.011 53.0126C176.998 52.9546 176.996 52.8956 177.007 52.8376C177.018 52.7796 177.041 52.7236 177.074 52.6746C177.137 52.5756 177.241 52.5036 177.358 52.4766L186.857 50.4066C193.774 48.8316 200.794 51.9236 204.322 58.1016C206.176 61.3466 209.776 63.2096 213.493 62.8406L228.113 61.3956C228.172 61.3896 228.231 61.3956 228.288 61.4126C228.345 61.4306 228.397 61.4586 228.443 61.4956C228.489 61.5336 228.526 61.5796 228.554 61.6326C228.582 61.6846 228.598 61.7426 228.604 61.8006L229.162 67.4256C229.175 67.5426 229.139 67.6646 229.063 67.7546C228.986 67.8446 228.878 67.9026 228.761 67.9166L214.141 69.3606C213.61 69.4196 213.079 69.4466 212.552 69.4466ZM190.417 55.6626C194.084 55.6626 197.518 57.6026 199.399 60.9096C202.085 65.6216 207.125 68.5466 212.548 68.5466C213.043 68.5466 213.542 68.5196 214.037 68.4746L228.208 67.0706L227.74 62.3406L213.569 63.7446C209.497 64.1496 205.555 62.1116 203.525 58.5566C200.195 52.7246 193.571 49.8036 187.042 51.2936L177.979 53.2686L178.991 57.9126L188.077 55.9326C188.86 55.7486 189.643 55.6626 190.417 55.6626Z" fill="black"/>
<path d="M51.8286 54.1946L52.9536 59.6486C53.1096 60.3996 53.5566 61.0586 54.1986 61.4806C54.8396 61.9026 55.6216 62.0526 56.3736 61.8986L64.6577 60.1886L62.3626 49.0686L54.0786 50.7786C53.7066 50.8546 53.3527 51.0036 53.0377 51.2166C52.7237 51.4296 52.4536 51.7026 52.2446 52.0196C52.0356 52.3366 51.8916 52.6926 51.8196 53.0656C51.7486 53.4386 51.7516 53.8226 51.8286 54.1946Z" fill="white"/>
<path d="M55.7838 62.4076C55.1358 62.4076 54.5058 62.2186 53.9528 61.8586C53.5848 61.6176 53.2678 61.3066 53.0218 60.9426C52.7748 60.5786 52.6038 60.1696 52.5168 59.7386L51.3918 54.2846C51.2118 53.4116 51.3828 52.5166 51.8738 51.7736C52.1138 51.4066 52.4238 51.0906 52.7868 50.8436C53.1498 50.5976 53.5588 50.4256 53.9888 50.3386L62.2728 48.6286C62.5158 48.5786 62.7548 48.7366 62.8038 48.9796L65.0988 60.0986C65.1218 60.2156 65.0988 60.3376 65.0358 60.4366C64.9688 60.5356 64.8698 60.6076 64.7528 60.6296L56.4678 62.3396C56.2388 62.3846 56.0088 62.4076 55.7838 62.4076ZM62.0118 49.5956L54.1688 51.2156C53.8538 51.2796 53.5548 51.4046 53.2898 51.5846C53.0238 51.7646 52.7968 51.9956 52.6208 52.2646C52.4438 52.5316 52.3218 52.8316 52.2608 53.1466C52.2008 53.4626 52.2038 53.7866 52.2698 54.1006L53.3948 59.5546C53.4588 59.8686 53.5838 60.1676 53.7638 60.4336C53.9438 60.6986 54.1748 60.9266 54.4428 61.1026C54.7108 61.2796 55.0108 61.4016 55.3258 61.4616C55.6408 61.5216 55.9648 61.5186 56.2788 61.4536L64.1228 59.8336L62.0118 49.5956Z" fill="black"/>
<path d="M180.039 52.7076L180.039 52.7078L178.662 58.1028L178.662 58.1034C178.506 58.7178 178.111 59.2447 177.565 59.5693C177.019 59.893 176.367 59.9871 175.751 59.83L175.751 59.83L168.037 57.8617L170.602 47.8276L178.317 49.7969C179.597 50.1243 180.367 51.4265 180.039 52.7076Z" fill="white" stroke="black"/>
<path d="M170.872 53.2406C168.586 62.1866 159.483 67.5816 150.541 65.2956L136.879 61.8036L145.155 29.4126L158.817 32.9046C167.763 35.1906 173.158 44.2946 170.872 53.2406Z" fill="#2B403A"/>
<path d="M154.708 66.2727C153.282 66.2727 151.846 66.0927 150.429 65.7327L136.771 62.2407C136.714 62.2267 136.66 62.2007 136.613 62.1647C136.566 62.1297 136.526 62.0847 136.497 62.0337C136.438 61.9307 136.42 61.8087 136.447 61.6917L144.723 29.3007C144.786 29.0577 145.029 28.9137 145.272 28.9767L158.934 32.4687C163.375 33.6027 167.11 36.4017 169.45 40.3437C171.79 44.2857 172.452 48.9077 171.318 53.3487C170.184 57.7907 167.385 61.5257 163.443 63.8657C160.747 65.4587 157.75 66.2727 154.708 66.2727ZM137.428 61.4807L150.654 64.8597C154.866 65.9357 159.24 65.3057 162.975 63.0917C166.71 60.8777 169.36 57.3357 170.436 53.1287C171.511 48.9207 170.881 44.5427 168.667 40.8077C166.453 37.0727 162.912 34.4217 158.704 33.3467L145.479 29.9667L137.428 61.4807Z" fill="black"/>
<path d="M140.852 26.3086L131.614 62.4656C131.534 62.7796 131.516 63.1076 131.562 63.4286C131.608 63.7496 131.717 64.0586 131.882 64.3376C132.048 64.6166 132.267 64.8606 132.526 65.0556C132.786 65.2496 133.082 65.3916 133.396 65.4716C133.71 65.5516 134.037 65.5696 134.359 65.5236C134.68 65.4776 134.989 65.3686 135.268 65.2036C135.547 65.0376 135.791 64.8186 135.986 64.5596C136.18 64.2996 136.322 64.0036 136.402 63.6896L145.64 27.5326C145.721 27.2176 145.739 26.8906 145.693 26.5696C145.647 26.2486 145.538 25.9396 145.372 25.6596C145.207 25.3806 144.988 25.1366 144.728 24.9426C144.468 24.7476 144.173 24.6066 143.858 24.5266C143.544 24.4456 143.217 24.4276 142.896 24.4736C142.574 24.5196 142.265 24.6286 141.986 24.7946C141.707 24.9596 141.463 25.1786 141.269 25.4386C141.074 25.6986 140.933 25.9936 140.852 26.3086Z" fill="white"/>
<path d="M134.003 65.9976C133.765 65.9976 133.522 65.9666 133.279 65.9076C131.717 65.5076 130.772 63.9146 131.173 62.3576L140.411 26.1996C140.506 25.8276 140.673 25.4786 140.903 25.1706C141.133 24.8636 141.422 24.6046 141.752 24.4086C142.419 24.0146 143.215 23.8996 143.966 24.0896C144.722 24.2826 145.357 24.7596 145.757 25.4306C146.158 26.1006 146.266 26.8886 146.077 27.6446L136.838 63.8016C136.675 64.4306 136.309 64.9866 135.796 65.3836C135.283 65.7816 134.652 65.9976 134.003 65.9976ZM143.242 24.8996C142.882 24.8996 142.531 24.9936 142.216 25.1826C141.987 25.3186 141.788 25.4966 141.629 25.7096C141.47 25.9216 141.354 26.1636 141.289 26.4206L132.05 62.5776C131.776 63.6576 132.428 64.7606 133.508 65.0346C134.588 65.3096 135.691 64.6566 135.965 63.5766L145.204 27.4196C145.339 26.8976 145.258 26.3526 144.983 25.8896C144.805 25.5866 144.55 25.3366 144.244 25.1626C143.939 24.9896 143.593 24.8986 143.242 24.8996Z" fill="black"/>
<path d="M152.346 29.2425L143.107 65.3995C143.027 65.7135 143.009 66.0415 143.055 66.3625C143.101 66.6835 143.21 66.9925 143.375 67.2715C143.541 67.5505 143.76 67.7945 144.019 67.9895C144.279 68.1835 144.575 68.3255 144.889 68.4055C145.203 68.4855 145.531 68.5035 145.852 68.4575C146.173 68.4115 146.482 68.3025 146.761 68.1375C147.04 67.9715 147.284 67.7525 147.479 67.4935C147.673 67.2335 147.815 66.9375 147.895 66.6235L157.134 30.4665C157.214 30.1515 157.232 29.8245 157.186 29.5035C157.14 29.1825 157.031 28.8735 156.865 28.5935C156.7 28.3145 156.481 28.0705 156.221 27.8765C155.962 27.6815 155.666 27.5405 155.352 27.4605C154.717 27.2985 154.044 27.3955 153.48 27.7295C152.917 28.0635 152.509 28.6075 152.346 29.2425Z" fill="white"/>
<path d="M145.496 68.9367C145.258 68.9367 145.015 68.9057 144.772 68.8467C143.21 68.4507 142.265 66.8537 142.666 65.2967L151.904 29.1387C151.999 28.7667 152.166 28.4167 152.396 28.1097C152.626 27.8017 152.915 27.5437 153.245 27.3477C153.575 27.1507 153.94 27.0217 154.32 26.9667C154.7 26.9117 155.088 26.9327 155.459 27.0287C156.215 27.2217 156.85 27.6987 157.25 28.3697C157.646 29.0397 157.759 29.8277 157.57 30.5837L148.331 66.7407C148.168 67.3687 147.801 67.9247 147.288 68.3217C146.775 68.7187 146.145 68.9347 145.496 68.9367ZM154.735 27.8337C154.375 27.8337 154.024 27.9287 153.709 28.1177C153.481 28.2527 153.281 28.4307 153.122 28.6437C152.963 28.8557 152.847 29.0977 152.782 29.3547L143.543 65.5127C143.478 65.7697 143.464 66.0367 143.501 66.2997C143.539 66.5617 143.628 66.8147 143.764 67.0427C143.899 67.2707 144.078 67.4697 144.29 67.6287C144.503 67.7877 144.744 67.9037 145.001 67.9697C145.258 68.0347 145.526 68.0487 145.789 68.0117C146.051 67.9737 146.304 67.8847 146.532 67.7487C146.76 67.6137 146.959 67.4347 147.118 67.2227C147.277 67.0097 147.393 66.7687 147.458 66.5117L156.697 30.3537C156.832 29.8317 156.751 29.2877 156.476 28.8237C156.298 28.5207 156.043 28.2707 155.737 28.0967C155.432 27.9237 155.086 27.8327 154.735 27.8337Z" fill="black"/>
<path d="M61.4549 55.0497C63.3219 64.0897 72.1649 69.9037 81.2049 68.0367L95.0109 65.1837L88.2479 32.4417L74.4419 35.2946C65.4009 37.1666 59.5869 46.0087 61.4549 55.0497Z" fill="#2B403A"/>
<path d="M77.8208 68.8375C69.8518 68.8375 62.6878 63.2435 61.0138 55.1435C60.0868 50.6525 60.9638 46.0715 63.4838 42.2425C66.0038 38.4125 69.8649 35.7895 74.3559 34.8625L88.1618 32.0095C88.4048 31.9595 88.6438 32.1175 88.6928 32.3605L95.4568 65.0975C95.4788 65.2145 95.4568 65.3365 95.3938 65.4355C95.3258 65.5345 95.2268 65.6065 95.1098 65.6285L81.3038 68.4815C80.1298 68.7205 78.9638 68.8375 77.8208 68.8375ZM87.9008 32.9765L74.5358 35.7395C70.2788 36.6175 66.6248 39.1015 64.2358 42.7325C61.8508 46.3645 61.0178 50.7065 61.8958 54.9595C63.7088 63.7435 72.3309 69.4135 81.1149 67.5995L94.4798 64.8365L87.9008 32.9765Z" fill="black"/>
<path d="M92.6927 29.5435L100.244 66.0925C100.376 66.7345 100.248 67.4025 99.8877 67.9505C99.5267 68.4975 98.9647 68.8795 98.3227 69.0135C97.6807 69.1445 97.0127 69.0165 96.4647 68.6565C95.9177 68.2955 95.5357 67.7335 95.4017 67.0915L87.8507 30.5425C87.7197 29.9005 87.8477 29.2325 88.2077 28.6845C88.5687 28.1375 89.1307 27.7555 89.7727 27.6225C90.0907 27.5565 90.4187 27.5535 90.7377 27.6145C91.0567 27.6755 91.3597 27.7985 91.6317 27.9775C91.9027 28.1555 92.1357 28.3865 92.3177 28.6545C92.5007 28.9235 92.6277 29.2255 92.6927 29.5435Z" fill="white"/>
<path d="M97.8188 69.5127C97.2508 69.5107 96.6958 69.3437 96.2218 69.0307C95.8998 68.8217 95.6228 68.5497 95.4078 68.2327C95.1918 67.9147 95.0418 67.5577 94.9658 67.1817L87.4148 30.6327C87.2578 29.8677 87.4058 29.0887 87.8338 28.4367C88.0428 28.1147 88.3148 27.8387 88.6318 27.6227C88.9498 27.4077 89.3068 27.2577 89.6828 27.1807C90.4478 27.0237 91.2268 27.1717 91.8788 27.5997C92.5318 28.0267 92.9768 28.6837 93.1348 29.4487L100.686 65.9977C100.843 66.7627 100.695 67.5417 100.267 68.1937C99.8398 68.8467 99.1828 69.2917 98.4178 69.4497C98.2198 69.4947 98.0168 69.5127 97.8188 69.5127ZM90.2768 28.0227C89.9418 28.0217 89.6128 28.1047 89.3178 28.2627C89.0228 28.4217 88.7728 28.6517 88.5898 28.9317C88.2928 29.3817 88.1888 29.9217 88.2968 30.4527L95.8478 67.0017C95.9558 67.5277 96.2668 67.9827 96.7168 68.2797C97.1668 68.5767 97.7068 68.6797 98.2378 68.5677C98.7638 68.4597 99.2188 68.1487 99.5158 67.6987C99.8128 67.2487 99.9158 66.7087 99.8078 66.1777L92.2568 29.6287C92.0588 28.6797 91.2128 28.0227 90.2768 28.0227Z" fill="black"/>
<path d="M81.0787 31.9425L88.6297 68.4915C88.7617 69.1335 88.6337 69.8015 88.2727 70.3485C87.9127 70.8965 87.3497 71.2785 86.7087 71.4115C86.0667 71.5435 85.3987 71.4145 84.8507 71.0545C84.3037 70.6945 83.9207 70.1315 83.7877 69.4905L76.2367 32.9415C76.1057 32.2985 76.2337 31.6305 76.5937 31.0835C76.9537 30.5355 77.5167 30.1535 78.1587 30.0205C78.8007 29.8885 79.4687 30.0175 80.0157 30.3775C80.5637 30.7375 80.9457 31.3005 81.0787 31.9425Z" fill="white"/>
<path d="M86.1999 71.9117C85.6319 71.9117 85.0759 71.7447 84.6019 71.4297C84.2809 71.2197 84.0039 70.9487 83.7889 70.6307C83.5729 70.3137 83.4229 69.9567 83.3469 69.5807L75.7959 33.0317C75.6379 32.2667 75.7869 31.4877 76.2139 30.8357C76.4239 30.5137 76.6949 30.2367 77.0129 30.0217C77.3299 29.8057 77.6879 29.6557 78.0639 29.5797C79.6389 29.2557 81.1909 30.2727 81.5149 31.8477L89.0659 68.3967C89.3899 69.9717 88.3729 71.5247 86.7979 71.8487C86.5999 71.8937 86.4019 71.9117 86.1999 71.9117ZM78.6579 30.4217C78.5229 30.4217 78.3879 30.4347 78.2479 30.4617C77.1589 30.6867 76.4529 31.7577 76.6779 32.8517L84.2289 69.4007C84.4539 70.4897 85.5249 71.1957 86.6179 70.9707C87.7069 70.7457 88.4139 69.6747 88.1889 68.5817L80.6379 32.0327C80.5429 31.5767 80.2939 31.1687 79.9339 30.8747C79.5729 30.5817 79.1229 30.4217 78.6579 30.4217Z" fill="black"/>
<mask id="mask4_34_59" style="mask-type:luminance" maskUnits="userSpaceOnUse" x="98" y="53" width="14" height="9">
<path d="M99.2547 61.3046L98.0437 55.4366L107.526 53.4786C109.146 53.1456 110.73 54.1856 111.067 55.8056C111.4 57.4256 110.361 59.0096 108.741 59.3466L99.2547 61.3046Z" fill="white"/>
</mask>
<g mask="url(#mask4_34_59)">
<path d="M35.791 44.2676H119.973V128.449H35.791V44.2676Z" fill="#FAFAFA"/>
</g>
<path d="M99.2537 61.7545C99.0467 61.7545 98.8577 61.6065 98.8127 61.3945L97.6027 55.5265C97.5797 55.4095 97.6027 55.2885 97.6657 55.1895C97.7327 55.0905 97.8317 55.0185 97.9487 54.9955L107.431 53.0385C108.331 52.8535 109.253 53.0295 110.023 53.5335C110.792 54.0375 111.319 54.8155 111.503 55.7155C111.886 57.5745 110.689 59.4015 108.826 59.7885L99.3437 61.7455C99.3167 61.7505 99.2857 61.7545 99.2537 61.7545ZM98.5747 55.7875L99.6047 60.7735L108.646 58.9065C109.307 58.7685 109.887 58.3745 110.258 57.8095C110.629 57.2455 110.761 56.5575 110.626 55.8955C110.559 55.5685 110.428 55.2575 110.24 54.9805C110.052 54.7045 109.812 54.4675 109.532 54.2845C109.254 54.0995 108.941 53.9725 108.613 53.9095C108.285 53.8475 107.947 53.8505 107.62 53.9205L98.5747 55.7875Z" fill="black"/>
<mask id="mask5_34_59" style="mask-type:luminance" maskUnits="userSpaceOnUse" x="93" y="32" width="14" height="9">
<path d="M93.6829 34.3315L94.8939 40.1995L104.375 38.2425C105.995 37.9095 107.039 36.3205 106.702 34.7005C106.622 34.3155 106.468 33.9495 106.247 33.6235C106.026 33.2975 105.742 33.0195 105.413 32.8025C105.085 32.5865 104.716 32.4375 104.33 32.3645C103.943 32.2905 103.546 32.2935 103.16 32.3745L93.6829 34.3315Z" fill="white"/>
</mask>
<g mask="url(#mask5_34_59)">
<path d="M35.7908 -39.9135H119.972V44.2676H35.7908V-39.9135Z" fill="#FAFAFA"/>
</g>
<path d="M94.8936 40.6496C94.8086 40.6496 94.7226 40.6226 94.6466 40.5776C94.5966 40.5456 94.5546 40.5036 94.5216 40.4556C94.4886 40.4066 94.4646 40.3516 94.4526 40.2946L93.2426 34.4266C93.1926 34.1836 93.3506 33.9446 93.5936 33.8956L103.075 31.9376C103.97 31.7536 104.902 31.9326 105.665 32.4346C106.428 32.9366 106.962 33.7206 107.148 34.6156C107.332 35.5156 107.157 36.4375 106.653 37.2075C106.405 37.5865 106.085 37.9125 105.71 38.1665C105.336 38.4205 104.914 38.5976 104.47 38.6876L94.9886 40.6456C94.9566 40.6456 94.9256 40.6496 94.8936 40.6496ZM94.2146 34.6786L95.2446 39.6645L104.286 37.7966C104.947 37.6596 105.527 37.2656 105.899 36.7006C106.27 36.1366 106.402 35.4476 106.266 34.7866C106.128 34.1246 105.734 33.5456 105.169 33.1746C104.605 32.8036 103.917 32.6706 103.255 32.8066L94.2146 34.6786Z" fill="black"/>
</g>
</g>
<defs>
<filter id="filter0_d_34_59" x="-2" y="24" width="235.291" height="55.9116" filterUnits="userSpaceOnUse" color-interpolation-filters="sRGB">
<feFlood flood-opacity="0" result="BackgroundImageFix"/>
<feColorMatrix in="SourceAlpha" type="matrix" values="0 0 0 0 0 0 0 0 0 0 0 0 0 0 0 0 0 0 127 0" result="hardAlpha"/>
<feOffset dy="4"/>
<feGaussianBlur stdDeviation="2"/>
<feComposite in2="hardAlpha" operator="out"/>
<feColorMatrix type="matrix" values="0 0 0 0 0 0 0 0 0 0 0 0 0 0 0 0 0 0 0.25 0"/>
<feBlend mode="normal" in2="BackgroundImageFix" result="effect1_dropShadow_34_59"/>
<feBlend mode="normal" in="SourceGraphic" in2="effect1_dropShadow_34_59" result="shape"/>
</filter>
<clipPath id="clip0_34_59">
<rect width="231" height="95" fill="white"/>
</clipPath>
</defs>
</svg>
